<?xml version="1.0" standalone="no"?>
<!DOCTYPE svg PUBLIC "-//W3C//DTD SVG 20010904//EN"
 "http://www.w3.org/TR/2001/REC-SVG-20010904/DTD/svg10.dtd">
<svg version="1.0" xmlns="http://www.w3.org/2000/svg"
 width="240.000000pt" height="144.000000pt" viewBox="0 0 240.000000 144.000000"
 preserveAspectRatio="xMidYMid meet">
<metadata>
Created by potrace 1.10, written by Peter Selinger 2001-2011
</metadata>
<g transform="translate(0.000000,144.000000) scale(0.100000,-0.100000)"
fill="#1d1d1c" stroke="none">
<path d="M77 1343 c-1 -1 -2 -66 -2 -145 l1 -143 62 -3 62 -3 0 79 c0 56 4 83
14 91 9 8 60 11 156 9 l142 -3 0 -495 0 -495 -67 -3 c-73 -3 -82 -12 -81 -82
l1 -35 223 -3 222 -2 0 48 c0 26 -5 53 -12 60 -7 7 -39 12 -75 12 -35 0 -63 3
-63 8 0 4 0 228 -1 497 l0 490 153 0 c146 0 153 -1 155 -20 1 -11 5 -50 8 -87
l6 -66 56 -4 c30 -1 57 0 59 4 4 6 7 215 4 283 0 7 -177 10 -511 10 -281 0
-511 -1 -512 -2z"/>
<path d="M1277 1343 c-1 -1 -2 -66 -2 -145 l1 -143 62 -3 62 -3 0 79 c0 56 4
83 14 91 9 8 60 11 156 9 l142 -3 0 -495 0 -495 -67 -3 c-73 -3 -82 -12 -81
-82 l1 -35 223 -3 222 -2 0 48 c0 26 -5 53 -12 60 -7 7 -39 12 -75 12 -35 0
-63 3 -63 8 0 4 0 228 -1 497 l0 490 153 0 c146 0 153 -1 155 -20 1 -11 5 -50
8 -87 l6 -66 52 -4 c29 -3 56 -1 60 2 6 5 11 189 7 285 0 7 -177 10 -511 10
-281 0 -511 -1 -512 -2z"/>
</g>
</svg>
